# File units = meters
mtllib HeadCage.mtl
g Part 1
v 0.00475 -0.00475 0.00025 
v 0.005 -0.00475 0.00025 
v 0.005 0.00475 0.00025 
v 0.00475 0.00475 0.00025 
v 0.005 -0.00475 0.00925 
v 0.00475 -0.00475 0.00925 
v 0.00475 0.00475 0.00925 
v 0.005 0.00475 0.00925 
v 0.00475 0.00475 0 
v 0.00475 -0.00475 0 
v -0.00475 0.00475 0.00025 
v -0.00475 0.00475 0 
v -0.00475 -0.00475 0 
v -0.00475 -0.00475 0.00025 
v -0.00475 -0.005 0.00025 
v 0.00475 -0.005 0.00025 
v 0.00475 -0.005 0.00925 
v -0.00475 -0.005 0.00925 
v -0.00475 -0.00475 0.00925 
v 0.005 0.005 0.0095 
v 0.005 -0.005 0.0095 
v 0.005 -0.005 0 
v 0.005 0.005 0 
v -0.005 -0.005 0.0095 
v -0.005 -0.005 0 
v -0.005 0.005 0 
v -0.005 0.00475 0.00025 
v -0.005 -0.00475 0.00025 
v -0.005 0.005 0.0095 
v -0.005 0.00475 0.00925 
v -0.005 -0.00475 0.00925 
v 0.00475 0.005 0.00025 
v -0.00475 0.005 0.00025 
v -0.00475 0.00475 0.00925 
v 0.00475 0.005 0.00925 
v -0.00475 0.005 0.00925 
v 0.00475 0.00475 0.0095 
v 0.00475 -0.00475 0.0095 
v -0.00475 0.00475 0.0095 
v -0.00475 -0.00475 0.0095 
vn 0 0 1 
vn 0 1 0 
vn 0 -1 0 
vn 0 0 -1 
vn -1 0 0 
vn 0 -1 0 
vn 0 1 0 
vn 1 0 0 
vn 0 0 1 
vn -1 0 0 
vn 1 0 0 
vn 0 0 -1 
vn 0 -1 0 
vn 0 0 1 
vn -1 -1.73472e-16 0 
vn 0 1 0 
vn 0 0 1 
vn 0 -1 0 
vn 0 1 0 
vn 1 0 0 
vn -1 0 0 
vn 0 0 -1 
vn 0 0 1 
vn 0 -1 0 
vn 0 1 0 
vn 1 0 0 
vn 0 0 -1 
usemtl 0.615686_0.811765_0.929412_0.000000_0.000000
o mesh0
f 1//1 2//1 3//1 
f 3//1 4//1 1//1 
o mesh1
f 5//2 2//2 1//2 
f 1//2 6//2 5//2 
o mesh2
f 7//3 4//3 3//3 
f 3//3 8//3 7//3 
o mesh3
f 7//4 8//4 5//4 
f 5//4 6//4 7//4 
o mesh4
f 4//5 9//5 10//5 
f 10//5 1//5 4//5 
o mesh5
f 11//6 12//6 9//6 
f 9//6 4//6 11//6 
o mesh6
f 1//7 10//7 13//7 
f 13//7 14//7 1//7 
o mesh7
f 14//8 13//8 12//8 
f 12//8 11//8 14//8 
o mesh8
f 14//9 15//9 16//9 
f 16//9 1//9 14//9 
o mesh9
f 6//10 1//10 16//10 
f 16//10 17//10 6//10 
o mesh10
f 18//11 15//11 14//11 
f 14//11 19//11 18//11 
o mesh11
f 6//12 17//12 18//12 
f 18//12 19//12 6//12 
o mesh12
f 20//11 21//11 5//11 
f 22//11 2//11 5//11 
f 5//11 21//11 22//11 
f 22//11 23//11 3//11 
f 3//11 2//11 22//11 
f 23//11 20//11 8//11 
f 8//11 3//11 23//11 
f 5//11 8//11 20//11 
o mesh13
f 21//13 24//13 18//13 
f 25//13 15//13 18//13 
f 18//13 24//13 25//13 
f 25//13 22//13 16//13 
f 22//13 21//13 17//13 
f 16//13 15//13 25//13 
f 18//13 17//13 21//13 
f 17//13 16//13 22//13 
o mesh14
f 26//12 23//12 9//12 
f 23//12 22//12 10//12 
f 10//12 9//12 23//12 
f 22//12 25//12 13//12 
f 13//12 10//12 22//12 
f 25//12 26//12 12//12 
f 12//12 13//12 25//12 
f 9//12 12//12 26//12 
o mesh15
f 11//14 27//14 28//14 
f 28//14 14//14 11//14 
o mesh16
f 24//15 29//15 30//15 
f 26//15 27//15 30//15 
f 30//15 29//15 26//15 
f 26//15 25//15 28//15 
f 28//15 27//15 26//15 
f 25//15 24//15 31//15 
f 31//15 28//15 25//15 
f 30//15 31//15 24//15 
o mesh17
f 19//16 14//16 28//16 
f 28//16 31//16 19//16 
o mesh18
f 11//17 4//17 32//17 
f 32//17 33//17 11//17 
o mesh19
f 30//18 27//18 11//18 
f 11//18 34//18 30//18 
o mesh20
f 29//19 20//19 35//19 
f 23//19 32//19 35//19 
f 35//19 20//19 23//19 
f 23//19 26//19 33//19 
f 33//19 32//19 23//19 
f 26//19 29//19 36//19 
f 36//19 33//19 26//19 
f 35//19 36//19 29//19 
o mesh21
f 34//20 11//20 33//20 
f 33//20 36//20 34//20 
o mesh22
f 35//21 32//21 4//21 
f 4//21 7//21 35//21 
o mesh23
f 35//22 7//22 34//22 
f 34//22 36//22 35//22 
o mesh24
f 37//21 7//21 6//21 
f 6//21 38//21 37//21 
o mesh25
f 20//23 29//23 39//23 
f 29//23 24//23 40//23 
f 40//23 39//23 29//23 
f 24//23 21//23 38//23 
f 38//23 40//23 24//23 
f 21//23 20//23 37//23 
f 37//23 38//23 21//23 
f 39//23 37//23 20//23 
o mesh26
f 39//24 34//24 7//24 
f 7//24 37//24 39//24 
o mesh27
f 38//25 6//25 19//25 
f 19//25 40//25 38//25 
o mesh28
f 40//26 19//26 34//26 
f 34//26 39//26 40//26 
o mesh29
f 31//27 30//27 34//27 
f 34//27 19//27 31//27 
